<svg xmlns="http://www.w3.org/2000/svg" width="246.001" height="88.999"><path d="M23.13 83.917C10.145 75.862 2.718 67.7.875 53.662c-2.86-21.853 11.314-37.693 22.443-42.079.771-.3 2.037-.7 2.355-.864s.453-.413.56.6 1.039.167 1.039.167c.884-.579 1.122-.226.829.01-.51.4-.266.987.872 1.435a6.579 6.579 0 001.3.534 1.757 1.757 0 001.747-.7c.78-.807 1.14-.864 1.666-.875s3.918-.025 4.457 0c.271.014.312-.113.347-.239s.062-.247.293-.239c.477.014 2.987.061 4.609.3a48.8 48.8 0 017.325 1.626c2.18.739 1.865.329 3.381 1.058s.78.153.78.153a37.171 37.171 0 00-6.178-2.9A34.618 34.618 0 0037.266 10.2c-.432.014-.746.026-.921.023a13.265 13.265 0 00-3.125.443c-1.074.208-.9-.3-.1-.488a45.664 45.664 0 019.575-.293c.71.065.438-.094.016-.2-3.1-.72-8.689-.93-11.281.381-.42.218-.735.031-.252-.212a13.982 13.982 0 013.946-.976 38.764 38.764 0 017.285-.052c1.157.122 2.641.2 3.926.413a37.282 37.282 0 015.014 1.261c.592.286 1.083.3.122-.178a54.517 54.517 0 00-6.775-2.014 37.475 37.475 0 00-5.835-.594c-1.417-.035-5.008.235-5.574.321a7.763 7.763 0 00-1.785.321c-.225.165-.7-.122-.338-.33a19.6 19.6 0 014.416-.935 59.658 59.658 0 018.369.278c1.482.327 3.391.64 3.947.866s1 .032.115-.5a3.749 3.749 0 00-1.716-.48c-.422-.1-.669-.256-.086-.337a11.82 11.82 0 013.392.836c1 .381.869.09.882-.042s-.046-.5.184-.621.484-.306-.4-.679-3.5-1.045-4.732-1.364a55.311 55.311 0 00-7.075-.665 61.542 61.542 0 00-7.855.743c-.95.229-.543-.118-.543-.118 4.478-1.7 12.416-1.042 14.877-.793.606.066 1.123.128 1.554.178 1.3.183.59-.112-.069-.283a32.4 32.4 0 00-8.252-.734c-.428.009-.734.017-.878.012-1.813-.082-3.074-.592-4.594.035-1 .412-1.533.051-.976-.177a22.652 22.652 0 014.348-.554 59.533 59.533 0 018.651.411c1.246.224 3.734.886 5.271 1.289.834.218.734-.093 0-.308s-3.292-1.278-3.632-1.36-.5-.659-.83-.743-2.539-.361-2.767-.435-.612-.224-.482.15c.058.151.052.253-.21.213-4.722-.685-7.1-.366-10.571.781-.783.258-.941-.283-.378-.314.707-.043.6-.4.478-.4-.97-.068.179-.4.319-.423 5.243-.953 13.015-.042 13.631.086a21.747 21.747 0 003.938.405 5.22 5.22 0 012.27.283c.878.247 1.664.536 2.145.648a1.82 1.82 0 001.229-.126 4.227 4.227 0 011.828.49c.42.192.6-.059.262-.249a18.485 18.485 0 00-4.07-2.027C50.817.6 51.526.16 53.522.881c20.18 7.247 46.356 35.17 29.42 64.849a42.6 42.6 0 01-32.168 21.72 51.288 51.288 0 01-9.96 1.05 33.5 33.5 0 01-17.684-4.583zm12.814 3c5.592 1.63 13.885-.192 16.071-.716.344-.082.251-.542-.134-.5-1.351.169-4.62.583-6.664.895a50.51 50.51 0 01-9.29-.276.489.489 0 00-.1-.011c-.366-.002-.725.368.117.605zm39.5-14.482c-6.8 7.022-10.329 9.164-17.179 11.953-.209.065-.107.453.2.374s4.055-1.5 4.5-1.687.376-.351.938-.644a48.2 48.2 0 006.137-4c1.637-1.436 2.633-2.29 3.544-3.15a17.817 17.817 0 002.156-2.558.213.213 0 00-.18-.331.157.157 0 00-.117.041zM27.83 55.972c6.551 9.4 10.7 11.073 13.913 11.308 3.48.258 14.207-.561 17.442-10.5 3.251-10 2.083-19.584-7.405-24.5a17.115 17.115 0 00-7.938-1.98c-12.84 0-23.672 14.695-16.012 25.672zm19.337-33.55c.635.345 1.86.9 2.466 1.135a6.654 6.654 0 001.708.271c.151.011.345-.286-.114-.41-.209-.053-.775-.251-1.13-.374s-.384-.361-.948-.393-.46-.287-.869-.439a6.892 6.892 0 00-1.822-.616h-.006c-.508.004.076.489.714.825zm-6.165-5.339c-.569.1-.923.455-.26.628s.59.355 1.191.582 1.515.3 2.689.567a17.538 17.538 0 013.015.82c.838.38 1.065.034 1.43-.012a1.484 1.484 0 01.543.133c.374.14.506-.053.341-.163a23.366 23.366 0 00-3.747-1.614c-1.093-.309-.787-.119-1.169-.446s-.877-.167-1.381-.388a4.893 4.893 0 00-1.544-.177 7.538 7.538 0 00-1.108.07zm-4.285-3.4c0 .27.246.368.69.589s.248.37.507.7.074.882.7.988 6.591.311 9.68 1.613a21.88 21.88 0 004.69 1.358c.675.274 1.266.5 1.563.606.27.078.262-.053-.349-.466a15.543 15.543 0 00-1.115-.657c-1.9-1.032-.72-.65-1.725-1.132s-1.093-.508-2.235-1.028a20.217 20.217 0 00-4.246-1.2c-1.2-.193-.774-.462.232-.286a78.938 78.938 0 019.159 2.445c6.074 2.232.511-.637-4.523-2.6-1.212-.475-.252-.569-1.033-.73s-1.815-.481-2.332-.526-.574-.494-1.785-.736a52.123 52.123 0 00-9.864-.351c-1.643.3-.785.373-.55.425s.136.3.2.517.531.278 1.205.189a3.339 3.339 0 01.428-.03c.43-.004.704.105.708.31zm151.885 61.733l1.3-5.035a12.832 12.832 0 006.145 1.606c3.117 0 5.5-1.65 5.5-5.6v-1.344h-.086a6.847 6.847 0 01-5.714 2.735c-5.236 0-8.959-4.255-8.959-10.331 0-6.859 4.37-11.2 9.607-11.2a6.322 6.322 0 015.8 3.039h.086l.221-2.56h5.713c-.087 1.389-.173 3.17-.173 6.338v11.8c0 4.081-.823 7.422-3.246 9.549-2.294 2-5.454 2.605-8.571 2.605a16.9 16.9 0 01-7.623-1.602zm4.846-18.143c0 3.17 1.559 5.643 4.285 5.643a3.6 3.6 0 003.506-2.649 6.056 6.056 0 00.217-1.778v-3.125a5.7 5.7 0 00-.131-1.216 3.609 3.609 0 00-3.55-2.908c-2.418 0-4.323 2.171-4.323 6.033zm-29.262 4.645c0-5.512 4.934-8.118 12.422-8.118v-.258c0-1.173-.6-2.778-3.851-2.778a11.873 11.873 0 00-5.844 1.606l-1.211-4.255a17.339 17.339 0 018.224-1.91c7.054 0 9.263 4.167 9.263 9.2v7.425a27.473 27.473 0 00.346 5.121h-5.93l-.39-2.127h-.129a7.618 7.618 0 01-6.061 2.6 6.5 6.5 0 01-6.835-6.506zm6.493-.651a2.365 2.365 0 002.6 2.516 3.637 3.637 0 003.42-2.43 4.8 4.8 0 00.13-1.129v-2.3c-3.461 0-6.145.825-6.145 3.343zm-44.455.651c0-5.512 4.935-8.118 12.422-8.118v-.258c0-1.173-.6-2.778-3.852-2.778a11.875 11.875 0 00-5.844 1.606l-1.21-4.253a17.335 17.335 0 018.223-1.91c7.055 0 9.264 4.167 9.264 9.2v7.423a27.473 27.473 0 00.346 5.121h-5.93l-.39-2.127h-.13a7.617 7.617 0 01-6.061 2.6 6.5 6.5 0 01-6.833-6.506zm6.494-.651a2.366 2.366 0 002.6 2.516 3.637 3.637 0 003.418-2.43 4.8 4.8 0 00.129-1.129v-2.3c-3.463 0-6.142.825-6.142 3.343zm78.952-3.689c0-5.382 3.332-11.329 10.691-11.329 6.839 0 9.436 5.34 9.436 10.59a15.718 15.718 0 01-.218 2.606h-13.627c.173 2.734 2.9 4.036 5.973 4.036a17.37 17.37 0 005.842-.913l.867 4.472a19.976 19.976 0 01-7.66 1.345c-7.187-.001-11.299-4.166-11.299-10.807zm6.233-2.648h7.79c0-1.607-.691-4.3-3.722-4.3-2.769.004-3.89 2.564-4.062 4.3zm-116.736 9.418a14.681 14.681 0 01-4.11-10.677c.043-9.722 7.1-15.278 16.663-15.278a21.038 21.038 0 018.093 1.389l-1.385 5.339a15.251 15.251 0 00-6.751-1.258c-5.5 0-9.7 3.082-9.7 9.461 0 6.078 3.808 9.593 9.22 9.593a10.017 10.017 0 003.2-.392v-6.163h-4.5V51.2h10.864v15.405a32.562 32.562 0 01-9.74 1.651c-5.319 0-9.17-1.347-11.854-3.908zm48.869 3.6V53.713c0-3.126-.042-5.164-.172-6.987h5.626l.259 3.907h.175a6.169 6.169 0 015.713-4.428 6.582 6.582 0 011.386.13v6.207a9.88 9.88 0 00-1.777-.174 4.228 4.228 0 00-4.5 3.343 7.722 7.722 0 00-.131 1.476v10.764zm85.439-18.319v-5.934h-5.922v-4.121h5.922v-5.935h4.11v5.935h5.917v4.121h-5.917v5.937z" fill="#72ab30"/><path d="M40.814 89a39.34 39.34 0 01-8.718-.937 30.177 30.177 0 01-9.23-3.721c-7.064-4.382-11.97-8.514-15.438-13A33.253 33.253 0 012.84 63.37a38.908 38.908 0 01-2.461-9.64 41.512 41.512 0 016.049-27.925c4.274-6.757 10.518-12.248 16.707-14.687.363-.143.836-.308 1.253-.453s.918-.32 1.061-.392l.011-.005c.028-.013.06-.031.093-.05a.856.856 0 01.435-.143.641.641 0 01.613.487 3.257 3.257 0 01.129.7 1.3 1.3 0 00.209-.148l.028-.025.032-.022a2.008 2.008 0 011.033-.4.658.658 0 01.654.424.709.709 0 01-.271.79h-.006a.316.316 0 00-.056.054c.034.078.227.294.8.521a6.19 6.19 0 01.618.284 1.789 1.789 0 00.563.219 2.394 2.394 0 00.3.025c.237 0 .543-.068 1.021-.57a2.531 2.531 0 012.018-1.03c.333-.006 1.69-.014 2.8-.014.783 0 1.311 0 1.577.01a.705.705 0 01.714-.476h.212c.739.019 2.986.078 4.491.3a57.605 57.605 0 015.736 1.15 19.576 19.576 0 00-.653-.241 33 33 0 00-9.89-1.443c-.555 0-1.026.012-1.375.022l-.245.008c-.315.01-.551.018-.7.015h-.122a10.53 10.53 0 00-2.327.321l-.568.113a2.843 2.843 0 01-.53.059c-.7 0-.8-.436-.817-.569a.6.6 0 01.04-.3q-.187.076-.352.16a1.253 1.253 0 01-.566.15.615.615 0 01-.641-.455c-.043-.183-.035-.529.5-.8a14.9 14.9 0 014.1-1.024l.064-.009c-.843.06-1.538.122-1.758.156-.157.023-.337.045-.528.067a6.837 6.837 0 00-1.058.173.771.771 0 01-.44.132.8.8 0 01-.787-.549.669.669 0 01.364-.764h.005a19.252 19.252 0 014.634-1 50.85 50.85 0 012.06-.032 49.69 49.69 0 016.442.321c.417.092.869.183 1.317.272a.574.574 0 01-.008-.127c.022-.5.588-.579.774-.6a1.444 1.444 0 01.207-.013 14.338 14.338 0 013.429.876c.085.032.158.058.22.079a1.019 1.019 0 01.153-.458l-.077-.033c-.84-.35-3.38-1.008-4.6-1.324l-.068-.006a55.6 55.6 0 00-6.963-.649h-.189a64.213 64.213 0 00-7.537.732 2.672 2.672 0 01-.6.092.6.6 0 01-.611-.379.627.627 0 01.23-.7l.07-.057.081-.031a13.236 13.236 0 011.6-.486.658.658 0 01-.472-.493.612.612 0 01.02-.3.728.728 0 01-.74-.664.673.673 0 01.436-.634.627.627 0 01-.007-.065c-.024-.447.44-.619.639-.692a3.564 3.564 0 01.476-.14 33.515 33.515 0 015.861-.441 58.75 58.75 0 017.959.526 24.337 24.337 0 003.522.4c.1 0 .2 0 .274-.009.221-.019.416-.028.6-.028a5.779 5.779 0 011.689.286l.153.042c.43.121.832.25 1.188.363.379.121.706.226.939.28a1.414 1.414 0 00.328.043 1.539 1.539 0 00.6-.146l.044-.016a8.2 8.2 0 00-1.934-.817 8.174 8.174 0 01-1.2-.312c-.194-.072-.71-.262-.664-.728.012-.12.1-.512.707-.512a6.056 6.056 0 011.794.41A56.512 56.512 0 0172.518 12.3a53.64 53.64 0 0113.863 20.223 38.768 38.768 0 012.421 16.089 40.342 40.342 0 01-5.427 17.366A45.092 45.092 0 0173.617 77.9a43.209 43.209 0 01-10.345 6.587 39.8 39.8 0 01-12.429 3.459h-.027c-.055.005-.276.048-.51.093a49.251 49.251 0 01-9.492.961zM25.721 11.245c-.217.089-.547.2-1 .364-.408.142-.871.3-1.215.439-6.004 2.365-12.07 7.707-16.233 14.292A40.522 40.522 0 001.37 53.6c1.925 14.667 10.2 22.558 22.023 29.894a31.64 31.64 0 0015.4 4.461 16.812 16.812 0 01-2.993-.559c-.835-.237-.9-.682-.869-.927a.852.852 0 01.887-.66.991.991 0 01.212.023 64.471 64.471 0 006.69.4 17.1 17.1 0 002.422-.132c1.933-.294 5.013-.688 6.678-.9h.005a.95.95 0 01.108-.006.773.773 0 01.791.674.748.748 0 01-.592.813c-.272.065-.611.144-1.007.23a36.694 36.694 0 007.428-1.662.811.811 0 01-.166.017.726.726 0 01-.723-.62.664.664 0 01.426-.733c6.86-2.794 10.28-4.9 17-11.832a.653.653 0 01.475-.2.733.733 0 01.634.378.7.7 0 01-.029.718 18.248 18.248 0 01-2.239 2.659c-.718.678-1.494 1.357-2.568 2.3l-.987.864a48.46 48.46 0 01-6.235 4.072 1.619 1.619 0 00-.412.287l-.036.033a42.482 42.482 0 0018.815-17.71c5.949-10.425 6.964-21.7 2.935-32.613C80.351 19.078 68.402 8.5 57.902 3.3a.594.594 0 01-.019.145.639.639 0 01-.652.462 1.152 1.152 0 01-.476-.114 5.376 5.376 0 00-1.479-.462 2.467 2.467 0 01-.929.2 2.389 2.389 0 01-.557-.069c-.27-.063-.615-.173-1.015-.3a34.233 34.233 0 00-1.149-.352l-.151-.041a4.811 4.811 0 00-1.425-.25c-.154 0-.323.008-.516.025h-.006c-.1.008-.221.012-.35.012a19.514 19.514 0 01-2.358-.2c.259.095.649.247 1.2.463.773.3 1.734.681 2.113.792.683.2 1 .5.946.88a.586.586 0 01-.639.482 2.33 2.33 0 01-.57-.09l-.34-.089c-.535-.141-1.168-.307-1.813-.472a.558.558 0 010 .168.541.541 0 01-.581.466c1.255.334 2.682.733 3.322 1 .463.194.895.433.926.866a.738.738 0 01-.4.664v.269a.663.663 0 01-.176.5.672.672 0 01-.5.193 2.653 2.653 0 01-.884-.222c-.135-.05-.276-.1-.422-.151a.593.593 0 01-.006.3.621.621 0 01-.478.434 26.819 26.819 0 013.176 1.071c.432.217.917.461.807.925a.534.534 0 01-.538.4 2.318 2.318 0 01-.826-.25 37.533 37.533 0 00-4.879-1.221c-.858-.139-1.8-.221-2.7-.3l-.166-.014a.51.51 0 01.24.509.548.548 0 01-.017.081 31.881 31.881 0 015.236 1.161h.01a37.315 37.315 0 016.271 2.941l.03.017.027.021c.116.092.469.371.336.756a.527.527 0 01-.509.351 2.871 2.871 0 01-1.134-.417 4.933 4.933 0 00-1.435-.509 14.133 14.133 0 01-1.89-.526 37.138 37.138 0 00-4.464-1.124l.036.024c.166.11.213.137.293.144a10.509 10.509 0 011.428.3c.33.084.671.171.964.231.221.046.664.137.74.58a2.433 2.433 0 00.374.174 78.958 78.958 0 014.945 2.129c.7.33 1.277.624 1.682.85.506.282.944.526.861.966a.542.542 0 01-.561.433 9.989 9.989 0 01-2.759-.843 60.918 60.918 0 00-2.24-.706.994.994 0 01.429.366 5.831 5.831 0 001.034.63c.426.23.814.458 1.15.678h.007c.38.257.853.577.716 1.026a.537.537 0 01-.529.376.924.924 0 01-.257-.041l-.023-.007c-.3-.1-.9-.333-1.59-.616a3.3 3.3 0 00-.673-.15 15.924 15.924 0 01-4.022-1.21 14.358 14.358 0 00-2.648-.758l.022.019.047.041.094.022c.132.03.352.08.73.187a23.425 23.425 0 013.892 1.682.608.608 0 01.264.686.65.65 0 01-.652.439 1.171 1.171 0 01-.408-.081l-.048-.018a1.85 1.85 0 00-.274-.086 1.144 1.144 0 00-.145.05 1.7 1.7 0 01-.648.139 2.158 2.158 0 01-.889-.221 11.8 11.8 0 00-2.195-.624 87.645 87.645 0 01-.728-.164c-.465-.105-.9-.18-1.281-.246a8.058 8.058 0 01-1.476-.342 2.731 2.731 0 01-.633-.333 1.4 1.4 0 00-.508-.233c-.678-.179-.735-.595-.727-.765.015-.359.321-.65.812-.788-.457-.04-.86-.071-1.186-.1-.567-.044-.845-.066-.988-.092a1.118 1.118 0 01-.931-.96.848.848 0 00-.07-.213 1.37 1.37 0 01-.243-.478l-.011-.035a.634.634 0 00-.082-.049l-.09-.044c-.373-.183-.756-.372-.853-.788a1.341 1.341 0 00-.231-.017 2.846 2.846 0 00-.363.026 4.55 4.55 0 01-.59.042c-.659 0-1.049-.2-1.161-.591a1.13 1.13 0 01-.038-.206c-.256-.055-.613-.181-.614-.582a.568.568 0 01.01-.108 2.35 2.35 0 00-.878.668 2.371 2.371 0 01-1.743.878 3.292 3.292 0 01-.426-.033h-.009a2.648 2.648 0 01-.882-.319 5.3 5.3 0 00-.527-.243c-1.091-.429-1.383-.956-1.436-1.323v-.021a1.41 1.41 0 01-.746.263c-.181 0-.779-.068-.873-.943-.007-.026-.012-.069-.017-.108zM60.988 84.37c-.613.232-1.236.465-1.7.633a43.022 43.022 0 001.7-.633zM41.579 17.529l.1.07a1.774 1.774 0 00.43.227 7.5 7.5 0 001.288.29c.394.068.841.145 1.335.257.249.058.488.111.72.163a12.456 12.456 0 012.389.689 1.481 1.481 0 00.392.126 19.145 19.145 0 00-2.165-.844c-.353-.1-.549-.144-.68-.174a1.007 1.007 0 01-.581-.288l-.094-.082a.888.888 0 00-.478-.13 2.6 2.6 0 01-.783-.183 4.524 4.524 0 00-1.343-.134 9.06 9.06 0 00-.53.013zm-2.953-2.083a.249.249 0 00.072.02c.1.019.469.047.892.08 2.06.159 6.346.49 8.9 1.565a16.115 16.115 0 003.21 1.042 1.045 1.045 0 01-.245-.26 3.456 3.456 0 00-.312-.162 38.227 38.227 0 00-1.353-.63c-.217-.1-.486-.218-.872-.394a19.935 19.935 0 00-4.116-1.163c-.423-.068-1.2-.192-1.155-.785.02-.252.188-.553.876-.553a4.01 4.01 0 01.671.064c2.046.377 4.271.965 6.026 1.472a76.928 76.928 0 00-1.657-.669c-.486-.19-.825-.385-.948-.705-.315-.065-.667-.155-1.008-.241a10.422 10.422 0 00-1.266-.276 1.522 1.522 0 01-.763-.308 2.579 2.579 0 00-1.078-.436 61.428 61.428 0 00-7.472-.467 13.533 13.533 0 00-2.2.117 1.285 1.285 0 01.024.166 1.624 1.624 0 00.212.012 3.564 3.564 0 00.46-.034 3.848 3.848 0 01.493-.034c1 0 1.176.5 1.2.738.069.045.207.113.322.17l.1.05a1.024 1.024 0 01.6.679.406.406 0 00.077.161 1.48 1.48 0 01.251.584.994.994 0 00.059.197zm3.847-13.09c.92.067 1.751.151 2.335.255.241.043.525.1.837.171a4.2 4.2 0 01-.1-.131 1.621 1.621 0 00-.159-.192c-.176-.039-.825-.131-1.3-.2a35.557 35.557 0 01-1.316-.2.583.583 0 01-.291.3zm-5.163-.188c.96 0 2.317.032 3.659.1a26.067 26.067 0 00-3.167-.216 16.391 16.391 0 00-2.566.194c.291-.022.563-.04.8-.052.327-.017.753-.026 1.274-.026zm158.912 75.354a17.329 17.329 0 01-7.857-1.668l-.341-.187 1.559-6.052.571.333a12.368 12.368 0 005.893 1.538c1.867 0 5-.662 5-5.1v-.111a7.492 7.492 0 01-5.3 2 8.892 8.892 0 01-6.82-3.059 11.78 11.78 0 01-2.638-7.772 14.228 14.228 0 01.794-4.812 11.06 11.06 0 012.174-3.693 9.495 9.495 0 017.139-3.192 7.7 7.7 0 013.827.917 6.378 6.378 0 011.666 1.358l.152-1.8h6.705l-.033.531c-.089 1.419-.172 3.166-.172 6.306v11.8a18.778 18.778 0 01-.737 5.658 9.139 9.139 0 01-2.679 4.267c-2.084 1.816-5.078 2.738-8.903 2.738zm-7.033-2.368a16.932 16.932 0 007.033 1.368c3.576 0 6.349-.835 8.242-2.483 2.1-1.84 3.075-4.755 3.075-9.172v-11.8c0-2.789.065-4.491.142-5.838h-4.723l-.217 2.562h-.827l-.146-.24a5.855 5.855 0 00-5.374-2.8c-5.277 0-9.107 4.5-9.107 10.7 0 5.788 3.478 9.831 8.459 9.831a6.334 6.334 0 005.309-2.528l.15-.207h.842v1.846a6.027 6.027 0 01-1.742 4.648 6.151 6.151 0 01-4.257 1.45 13.62 13.62 0 01-5.82-1.365zm-18.16-6.227a7.314 7.314 0 01-5.384-2.136 6.931 6.931 0 01-1.955-4.873 7.316 7.316 0 013.64-6.551c2.123-1.312 5.072-2.005 8.772-2.063-.115-1.354-1.237-2.041-3.341-2.041a11.388 11.388 0 00-5.578 1.529l-.564.354-1.5-5.274.344-.193a17.772 17.772 0 018.469-1.974c3.436 0 6.012.971 7.656 2.887a10.182 10.182 0 012.107 6.815v7.421a26.541 26.541 0 00.335 5.012l.135.609h-6.97l-.306-1.672a8.331 8.331 0 01-5.859 2.15zm5.583-14.627c-4.452 0-11.922.99-11.922 7.618a5.975 5.975 0 006.339 6.01 7.125 7.125 0 005.675-2.42l.15-.183h.782l.39 2.127h4.914a32.975 32.975 0 01-.247-4.621v-7.423c0-5.775-2.948-8.7-8.763-8.7a17.185 17.185 0 00-7.633 1.662l.926 3.25a12.591 12.591 0 015.538-1.354 4.844 4.844 0 013.494 1.093 2.983 2.983 0 01.857 2.185v.756zm-43.544 14.627a7.314 7.314 0 01-5.385-2.136 6.931 6.931 0 01-1.954-4.873 7.316 7.316 0 013.64-6.551c2.123-1.312 5.072-2.005 8.772-2.063-.115-1.354-1.238-2.041-3.342-2.041a11.393 11.393 0 00-5.578 1.529l-.564.354-1.5-5.274.344-.193a17.77 17.77 0 018.468-1.974c3.437 0 6.013.971 7.657 2.887a10.181 10.181 0 012.107 6.815v7.421a26.543 26.543 0 00.335 5.012l.135.609h-6.97l-.307-1.673a8.33 8.33 0 01-5.858 2.151zm5.583-14.627c-4.452 0-11.922.99-11.922 7.618a5.975 5.975 0 006.339 6.01 7.124 7.124 0 005.674-2.42l.15-.183h.783l.39 2.127h4.914a32.973 32.973 0 01-.247-4.621v-7.423c0-5.775-2.949-8.7-8.764-8.7a17.183 17.183 0 00-7.632 1.662l.925 3.25a12.6 12.6 0 015.538-1.354 4.846 4.846 0 013.495 1.093 2.982 2.982 0 01.857 2.185v.756zm84.323 14.584c-3.63 0-6.636-1.056-8.693-3.054a11.164 11.164 0 01-3.106-8.252 12.856 12.856 0 012.7-8 11.329 11.329 0 0113.071-2.865 8.5 8.5 0 013.1 2.559 12.593 12.593 0 012.255 7.566 16.31 16.31 0 01-.226 2.694l-.074.411h-13.476a3.269 3.269 0 001.588 2.117 7.426 7.426 0 003.813.919 16.8 16.8 0 005.68-.886l.544-.186 1.053 5.435-.374.157a20.289 20.289 0 01-7.855 1.385zm-.607-22.135c-7 0-10.191 5.614-10.191 10.829 0 6.453 4.037 10.306 10.8 10.306a20.076 20.076 0 007.091-1.155l-.681-3.512a18.248 18.248 0 01-5.459.763c-3.759 0-6.3-1.768-6.472-4.5l-.034-.532h13.738a15.686 15.686 0 00.145-2.105c-.002-4.882-2.349-10.094-8.938-10.094zM113.026 68.756c-5.36 0-9.352-1.324-12.2-4.046a15.12 15.12 0 01-4.265-11.038 15.077 15.077 0 014.93-11.66 15.763 15.763 0 015.441-3.072 23.724 23.724 0 0115.092.388l.378.172-1.641 6.324-.543-.25a15.405 15.405 0 00-6.542-1.212c-5.759 0-9.2 3.35-9.2 8.961s3.341 9.093 8.72 9.093a12.011 12.011 0 002.7-.256v-5.3h-4.5V50.7h11.864v16.263l-.339.116a33.015 33.015 0 01-9.895 1.677zm.694-29.862c-9.779 0-16.124 5.8-16.163 14.78a14.13 14.13 0 003.958 10.315c2.655 2.534 6.421 3.767 11.511 3.767a31.994 31.994 0 009.24-1.511V51.7h-9.864v4.164h4.5v6.994l-.306.129a10.352 10.352 0 01-3.4.432c-5.9 0-9.72-3.962-9.72-10.093a9.743 9.743 0 012.952-7.494 10.587 10.587 0 017.244-2.467 16.572 16.572 0 016.414 1.067l1.13-4.356a21.569 21.569 0 00-7.496-1.182zm43.395 29.556h-7.579V53.713c0-3.275-.048-5.224-.171-6.951l-.038-.535h6.631l.182 2.748a6.482 6.482 0 015.5-3.269 7.109 7.109 0 011.475.138l.411.075v7.214l-.6-.1a9.32 9.32 0 00-1.679-.164 3.752 3.752 0 00-4.011 2.946 7.245 7.245 0 00-.121 1.373zm-6.579-1h5.579V57.187a8.152 8.152 0 01.141-1.575 4.533 4.533 0 011.691-2.737 5.41 5.41 0 013.3-1.007 9.032 9.032 0 011.277.089v-5.2a6.013 6.013 0 00-.886-.054 5.662 5.662 0 00-5.241 4.092l-.117.336h-1l-.259-3.907h-4.619c.1 1.626.138 3.517.138 6.487zm-107.691.367c-.407 0-.79-.013-1.139-.039a11.173 11.173 0 01-5.961-2.311c-2.57-1.847-5.293-4.86-8.325-9.21-3.253-4.657-3.518-10.41-.718-15.773a20.5 20.5 0 017-7.606 18.753 18.753 0 0110.14-3.078 17.589 17.589 0 018.167 2.031A16.165 16.165 0 0160.744 42.5a21.289 21.289 0 01.487 6.965 33.314 33.314 0 01-1.571 7.468 14.776 14.776 0 01-3.311 5.654 15.373 15.373 0 01-4.634 3.307 21.71 21.71 0 01-8.87 1.924zm1-37.014A18.921 18.921 0 0027.59 40.947a13.842 13.842 0 00.65 14.738c6.54 9.383 10.514 10.874 13.54 11.1.325.024.684.036 1.066.036 2.1 0 12.707-.491 15.864-10.194 2.1-6.454 3.959-18.141-7.16-23.9a16.6 16.6 0 00-7.708-1.927zm129.438 33.48a2.865 2.865 0 01-3.1-3.016 3.264 3.264 0 012.061-3.068 11.026 11.026 0 014.585-.775h.5v2.8a5.31 5.31 0 01-.144 1.249l-.01.034a4.156 4.156 0 01-3.895 2.776zm3.05-5.854c-3.415.083-5.146 1.037-5.146 2.838a1.9 1.9 0 002.1 2.016 3.135 3.135 0 002.939-2.067 4.316 4.316 0 00.111-.993zm-41.009 5.854a2.866 2.866 0 01-3.1-3.016 3.264 3.264 0 012.061-3.068 11.023 11.023 0 014.584-.775h.5v2.8a5.312 5.312 0 01-.143 1.249l-.01.034a4.155 4.155 0 01-3.895 2.776zm3.047-5.854c-3.415.083-5.145 1.037-5.145 2.838a1.9 1.9 0 002.1 2.016 3.134 3.134 0 002.937-2.067 4.32 4.32 0 00.11-.993zm59.369 4.986a4.248 4.248 0 01-3.57-1.841 7.314 7.314 0 01-1.214-4.3 7.826 7.826 0 011.357-4.767 4.291 4.291 0 013.47-1.766 4.1 4.1 0 014.032 3.276l.006.022a6.2 6.2 0 01.144 1.326v3.125a6.358 6.358 0 01-.239 1.926 4.113 4.113 0 01-3.989 3zm.042-11.676a3.27 3.27 0 00-2.674 1.371 6.855 6.855 0 00-1.153 4.162 6.421 6.421 0 001.026 3.718 3.284 3.284 0 002.759 1.425 3.084 3.084 0 003.026-2.286l.006-.021a5.46 5.46 0 00.191-1.62v-3.124a5.183 5.183 0 00-.117-1.1 3.105 3.105 0 00-3.067-2.524zm28.42 3.691h-8.842l.055-.55a6.2 6.2 0 011.158-3.052 4.131 4.131 0 013.406-1.7c3.117 0 4.222 2.584 4.222 4.8zm-7.706-1h6.681c-.107-1.1-.64-3.3-3.2-3.3-2.216.004-3.187 1.877-3.485 3.3zm21.593-4.3h-5.11v-5.935h-5.922v-5.122h5.922v-5.934h5.11v5.935h5.913v5.121h-5.917zm-4.11-1h3.11v-5.935h5.913v-3.122h-5.917v-5.934h-3.11v5.935h-5.922v3.121h5.922zM51.348 24.327h-.032a7.435 7.435 0 01-1.86-.3c-.626-.243-1.861-.8-2.524-1.161-1.311-.691-1.195-1.16-1.157-1.314a.623.623 0 01.676-.454h.014a4.894 4.894 0 011.675.515c.126.055.235.1.317.134a1.334 1.334 0 01.492.319c.069.066.08.077.233.089a1.541 1.541 0 01.9.317.753.753 0 00.178.1l.076.026c.313.109.837.29 1.01.334h.006a.753.753 0 01.652.806.679.679 0 01-.656.589z" fill="rgba(0,0,0,0)"/></svg>