<svg xmlns="http://www.w3.org/2000/svg" width="2389.712" height="180.166"><path data-name="Must See" d="M2274.38 165.476l4.509-31.28h1.424c12.578 9.242 30.139 17.536 47.937 17.536 17.323 0 26.815-9 26.815-20.617 0-10.9-5.7-18.01-34.884-30.332-33.223-13.744-45.088-28.673-45.088-52.133 0-25.83 20.883-45.735 56.953-45.735 18.748 0 35.6 5.212 47.937 12.323l-4.271 30.805h-1.424c-12.815-9.242-28.477-14.929-43.19-14.929-14.239 0-21.6 7.346-21.6 17.062s4.984 14.928 34.411 27.962c35.6 15.877 45.8 31.28 45.8 53.318 0 28.437-23.73 50.711-60.75 50.711a109.2 109.2 0 01-54.579-14.691zm-314.427-59.717v-98.1h33.223v95.972c0 31.991 11.391 45.736 36.545 45.736 24.918 0 36.071-13.745 36.071-45.973V7.659h33.46v97.868c0 47.868-23.73 74.645-69.531 74.645-47.936-.007-69.768-25.362-69.768-74.415zm-724.011 59.717l4.508-31.28h1.424c12.578 9.242 30.139 17.536 47.937 17.536 17.323 0 26.815-9 26.815-20.617 0-10.9-5.7-18.01-34.884-30.332-33.223-13.744-45.088-28.673-45.088-52.133 0-25.83 20.883-45.735 56.954-45.735 18.747 0 35.6 5.212 47.936 12.323l-4.271 30.805h-1.423c-12.815-9.242-28.478-14.929-43.191-14.929-14.238 0-21.595 7.346-21.595 17.062s4.983 14.928 34.41 27.962c35.6 15.877 45.8 31.28 45.8 53.318 0 28.437-23.731 50.711-60.751 50.711a109.192 109.192 0 01-54.581-14.691zm-486.779-.241l4.582-31.793h1.45c12.783 9.4 30.632 17.825 48.721 17.825 17.609 0 27.256-9.156 27.256-20.957 0-11.08-5.787-18.3-35.456-30.83-33.77-13.968-45.83-29.143-45.83-52.988 0-26.255 21.228-46.49 57.89-46.49 19.055 0 36.183 5.3 48.724 12.527l-4.341 31.312h-1.45c-13.023-9.4-28.942-15.174-43.9-15.174-14.474 0-21.951 7.466-21.951 17.34s5.068 15.174 34.975 28.424c36.183 16.137 46.552 31.792 46.552 54.193 0 28.9-24.12 51.543-61.749 51.543a110.981 110.981 0 01-55.473-14.935zm-355.528 0l4.583-31.793h1.449c12.783 9.4 30.633 17.825 48.722 17.825 17.609 0 27.256-9.156 27.256-20.957 0-11.08-5.788-18.3-35.457-30.83-33.77-13.968-45.829-29.143-45.829-52.988 0-26.255 21.227-46.49 57.889-46.49 19.056 0 36.183 5.3 48.725 12.527l-4.342 31.312h-1.449c-13.024-9.4-28.943-15.174-43.9-15.174-14.473 0-21.951 7.466-21.951 17.34s5.068 15.174 34.975 28.424c36.183 16.137 46.552 31.792 46.552 54.193 0 28.9-24.12 51.543-61.748 51.543a110.982 110.982 0 01-55.475-14.935zm-171.975-60.7V4.817h33.77v97.549c0 32.517 11.578 46.485 37.144 46.485 25.328 0 36.664-13.968 36.664-46.726V4.817h34.011v99.478c0 48.652-24.123 75.868-70.675 75.868-48.721.002-70.914-25.767-70.914-75.626zm1915.558 70.889V7.652h56.482c40.817 0 61.463 18.72 61.463 53.554 0 32.466-20.883 52.608-58.853 52.608h-25.63v61.612zm33.461-88.628h20.171c21.832 0 31.8-8.293 31.8-25.592 0-18.247-10.205-26.3-32.037-26.3h-19.933zm-316.326 88.628V38.458h-51.733V7.653h136.69v30.805h-51.732v136.969zm-87.565 0l-45.325-66.588h-18.51v66.588h-33.46V7.652h56c39.631 0 60.751 17.061 60.751 51.659 0 21.8-11.154 37.2-31.324 44.076l48.411 68.011-1.9 4.028zm-63.835-92.418h18.985c22.782 0 31.562-7.82 31.562-23.46 0-16.588-9.492-24.171-31.562-24.171h-18.985zm-89.7 92.418l-13.053-35.782h-67.157l-12.815 35.782h-36.308l-.95-.948 65.972-166.827h36.545l65.021 166.827-.711.948zm-58.141-97.158l-13.289 36.968h49.359l-13.526-37.205c-3.559-10.663-8.068-24.881-10.916-38.152h-.712a339.839 339.839 0 01-10.913 38.392zm-142.621 97.158V38.458h-51.733V7.653h136.688v30.805h-51.732v136.969zm-374.375-.077V4.817h103.719l3.377 29.383h-73.085v41.43h66.091v25.533h-66.091v44.8h73.085l-3.377 29.386zm-140.863 0V4.817h103.719l3.377 29.383h-73.085v41.43h66.09v25.533h-66.09v44.8h73.085l-3.377 29.386zm-324.168 0V36.131h-52.578V4.819h138.934v31.312h-52.583v139.218zm-423.3 0l.241-76.594c0-16.859.241-34.2.482-51.062h-.724c-6.755 13.246-13.265 26.5-20.02 39.5l-35.941 70.572h-4.342L53.542 87.191c-6.755-13.006-13.264-26.255-20.019-39.5h-.724c.241 16.86.482 34.2.482 51.063v76.594H0V4.818h42.452l48.965 98.511h.723l48.966-98.511h41.97v170.53zm505.555-70.331v-23.12h66.33v23.12z"/></svg>