<svg xmlns="http://www.w3.org/2000/svg" width="300" height="300"><defs><clipPath id="a"><path data-name="Rectangle 5" fill="none" d="M0 0h245v88H0z"/></clipPath></defs><g data-name="Group 19" transform="translate(-3300.61 -3290)"><circle cx="150" cy="150" r="150" transform="translate(3300.61 3290)" fill="#fff"/><g data-name="Garage+"><g data-name="Group 4"><g data-name="Group 3" clip-path="url(#a)" fill="#72ab30" transform="translate(3328 3396)"><path data-name="Path 16" d="M27.6 11c-.51.4-.265.987.872 1.434a6.542 6.542 0 001.3.534 1.756 1.756 0 001.747-.7c.78-.807 1.14-.863 1.666-.875s3.918-.025 4.457 0 .172-.493.641-.478 2.987.06 4.609.3a48.758 48.758 0 017.325 1.626c2.18.739 1.865.33 3.381 1.058s.781.153.781.153a37.132 37.132 0 00-6.178-2.9 36.292 36.292 0 00-12.357-1.425 13.265 13.265 0 00-3.125.443c-1.073.208-.9-.3-.1-.488a45.7 45.7 0 019.575-.294c.71.065.439-.093.017-.2-3.1-.72-8.69-.93-11.281.381-.419.217-.734.03-.252-.212a13.984 13.984 0 013.946-.976 38.833 38.833 0 017.285-.052c1.158.122 2.641.2 3.926.413A37.286 37.286 0 0150.847 10c.593.286 1.083.3.123-.178a54.514 54.514 0 00-6.77-2.01 37.4 37.4 0 00-5.835-.594c-1.416-.035-5.008.235-5.574.321A7.768 7.768 0 0031 7.856c-.226.165-.7-.122-.339-.33a19.633 19.633 0 014.416-.935 59.659 59.659 0 018.37.278c1.482.327 3.391.64 3.947.867s1.005.031.116-.5a3.752 3.752 0 00-1.717-.48c-.422-.1-.669-.256-.086-.337a11.844 11.844 0 013.392.837c1 .381.869.089.882-.043s-.046-.5.185-.621.484-.306-.4-.678-3.5-1.045-4.732-1.364a55.37 55.37 0 00-7.075-.665 61.678 61.678 0 00-7.855.743c-.95.229-.542-.117-.542-.117 4.478-1.7 12.415-1.042 14.877-.793.606.065 1.123.128 1.554.178 1.3.183.591-.113-.069-.283a36.273 36.273 0 00-9.129-.722c-1.814-.082-3.074-.592-4.594.035-1 .412-1.533.051-.975-.177a22.614 22.614 0 014.348-.554 59.506 59.506 0 018.65.411c1.245.225 3.734.886 5.272 1.289.834.218.734-.093 0-.308S46.2 2.306 45.859 2.224s-.5-.658-.83-.743-2.539-.361-2.766-.434-.612-.224-.483.15c.058.151.053.253-.21.213-4.721-.686-7.101-.367-10.57.78-.783.258-.942-.282-.378-.314.707-.044.6-.4.477-.4-.97-.068.179-.4.319-.423C36.663.1 44.434 1.01 45.051 1.14a21.754 21.754 0 003.937.4 5.223 5.223 0 012.27.284c.878.247 1.664.536 2.145.648a1.822 1.822 0 001.229-.125 4.223 4.223 0 011.827.489c.42.191.6-.06.262-.249A18.485 18.485 0 0052.652.563c-2.337-.46-1.628-.9.368-.182C73.2 7.628 99.376 35.551 82.441 65.23a42.6 42.6 0 01-32.168 21.72c-.937.089-15.677 3.885-27.644-3.533C9.642 75.361 2.216 67.2.373 53.163c-2.859-21.853 11.314-37.694 22.443-42.08.771-.3 2.037-.7 2.355-.863s.453-.413.56.6 1.04.167 1.04.167c.884-.579 1.123-.226.829.01m21.644 3.11c-1.213-.476-.252-.569-1.033-.73s-1.815-.482-2.332-.525-.574-.494-1.785-.736a52.222 52.222 0 00-9.864-.351c-1.644.3-.786.372-.551.425s.137.3.2.517.532.278 1.206.189 1.131.018 1.136.284.246.368.69.589.247.369.506.7.074.882.7.988 6.59.311 9.679 1.613a21.82 21.82 0 004.69 1.357c.675.275 1.266.5 1.563.606.27.079.262-.053-.349-.466-.247-.161-.61-.384-1.116-.657-1.9-1.032-.72-.65-1.725-1.133s-1.094-.507-2.235-1.028a20.285 20.285 0 00-4.247-1.2c-1.2-.193-.774-.462.233-.286a78.982 78.982 0 019.16 2.445c6.074 2.232.511-.637-4.523-2.6m.21 5.03a23.305 23.305 0 00-3.747-1.614c-1.094-.309-.786-.119-1.169-.446s-.876-.166-1.38-.388a7.407 7.407 0 00-2.653-.109c-.569.1-.924.456-.26.629s.59.355 1.191.582 1.515.3 2.689.567a17.46 17.46 0 013.016.82c.837.379 1.065.034 1.43-.011a1.464 1.464 0 01.542.133c.374.14.506-.054.342-.163m1.271 3.779c-.209-.053-.775-.251-1.13-.374s-.384-.361-.948-.394-.46-.287-.869-.439a6.9 6.9 0 00-1.823-.616c-.516 0 .069.489.71.826s1.861.9 2.466 1.135a6.63 6.63 0 001.708.271c.151.011.345-.286-.114-.409m24.212 49.016c-6.8 7.021-10.329 9.164-17.179 11.953-.209.065-.108.453.2.375s4.054-1.5 4.5-1.688.376-.351.937-.644a48.251 48.251 0 006.137-4c1.637-1.436 2.633-2.29 3.544-3.15a17.812 17.812 0 002.155-2.557c.146-.228-.159-.426-.3-.284M44.714 86.095a50.541 50.541 0 01-9.289-.276c-.384-.085-.9.334.017.6 5.592 1.63 13.885-.192 16.072-.717.343-.082.251-.541-.134-.5-1.351.17-4.619.584-6.665.895m6.564-54.317c-15.61-8.1-33.166 10.486-23.95 23.693 6.551 9.4 10.7 11.073 13.913 11.309 3.48.258 14.207-.561 17.441-10.5 3.251-10 2.084-19.585-7.4-24.5"/><path data-name="Path 17" d="M122.264 66.1a32.549 32.549 0 01-9.739 1.65c-5.324 0-9.176-1.346-11.859-3.907a14.68 14.68 0 01-4.11-10.677c.043-9.722 7.1-15.277 16.664-15.277a21.033 21.033 0 018.093 1.389l-1.385 5.339a15.253 15.253 0 00-6.751-1.259c-5.5 0-9.7 3.082-9.7 9.461 0 6.078 3.808 9.593 9.219 9.593a10.045 10.045 0 003.2-.392v-6.158h-4.5V50.7h10.863z"/><path data-name="Path 18" d="M144.73 62.329a27.49 27.49 0 00.346 5.121h-5.93l-.39-2.127h-.13a7.616 7.616 0 01-6.061 2.6 6.5 6.5 0 01-6.839-6.51c0-5.512 4.934-8.117 12.422-8.117v-.258c0-1.173-.6-2.778-3.852-2.778a11.879 11.879 0 00-5.844 1.605l-1.211-4.253a17.339 17.339 0 018.224-1.91c7.055 0 9.263 4.167 9.263 9.2zm-6.364-4.905c-3.462 0-6.146.825-6.146 3.344a2.366 2.366 0 002.6 2.516 3.637 3.637 0 003.418-2.43 4.8 4.8 0 00.129-1.129z"/><path data-name="Path 19" d="M149.535 53.214c0-3.126-.043-5.165-.172-6.987h5.626l.259 3.907h.174a6.17 6.17 0 015.713-4.428 6.586 6.586 0 011.387.129v6.208a9.87 9.87 0 00-1.777-.174 4.228 4.228 0 00-4.5 3.343 7.692 7.692 0 00-.131 1.476V67.45h-6.579z"/><path data-name="Path 20" d="M182.691 62.329a27.479 27.479 0 00.347 5.121h-5.93l-.39-2.127h-.129a7.616 7.616 0 01-6.061 2.6 6.5 6.5 0 01-6.84-6.51c0-5.512 4.934-8.117 12.422-8.117v-.258c0-1.173-.6-2.778-3.851-2.778a11.877 11.877 0 00-5.844 1.605l-1.215-4.249a17.337 17.337 0 018.224-1.91c7.055 0 9.263 4.167 9.263 9.2zm-6.363-4.905c-3.462 0-6.146.825-6.146 3.344a2.365 2.365 0 002.6 2.516 3.637 3.637 0 003.42-2.43 4.761 4.761 0 00.13-1.129z"/><path data-name="Path 21" d="M207.537 64.368c0 4.08-.822 7.422-3.246 9.549-2.294 2-5.454 2.6-8.571 2.6a16.9 16.9 0 01-7.617-1.606l1.3-5.035a12.835 12.835 0 006.145 1.606c3.117 0 5.5-1.65 5.5-5.6v-1.339h-.086a6.845 6.845 0 01-5.714 2.735c-5.236 0-8.959-4.255-8.959-10.331 0-6.859 4.371-11.2 9.607-11.2a6.32 6.32 0 015.8 3.039h.086l.218-2.56h5.713c-.087 1.389-.173 3.169-.173 6.338zm-6.579-9.5a5.68 5.68 0 00-.131-1.216 3.608 3.608 0 00-3.549-2.908c-2.423 0-4.327 2.17-4.327 6.033 0 3.169 1.559 5.643 4.285 5.643a3.6 3.6 0 003.507-2.648 6.049 6.049 0 00.217-1.778z"/><path data-name="Path 22" d="M217.45 58.944c.172 2.735 2.9 4.036 5.973 4.036a17.361 17.361 0 005.842-.912l.866 4.472a19.974 19.974 0 01-7.66 1.345c-7.186 0-11.3-4.166-11.3-10.806 0-5.383 3.332-11.33 10.691-11.33 6.839 0 9.436 5.34 9.436 10.591a15.743 15.743 0 01-.217 2.6zm7.75-4.514c0-1.607-.692-4.3-3.723-4.3-2.77 0-3.894 2.56-4.067 4.3z"/><path data-name="Rectangle 3" d="M229.051 39.073H245v4.121h-15.949z"/><path data-name="Rectangle 4" d="M234.973 33.139h4.11v15.993h-4.11z"/></g></g></g></g></svg>