<svg xmlns="http://www.w3.org/2000/svg" width="300" height="300"><g data-name="Group 18" transform="translate(-2961 -3352)"><circle cx="150" cy="150" r="150" transform="translate(2961 3352)" fill="#fff"/><path data-name="Rectangle 1" fill="#cf000e" d="M3014 3449.999h192.917v68.652H3014z"/><path data-name="Path 1" d="M3030.322 3468.4h29.924v5.422h-21.8v7.165h20.29v5.413h-20.294v8.72h22.547v5.427h-30.667z" fill="#fff"/><path data-name="Path 2" d="M3029.857 3467.934h30.854v6.353h-21.8v6.234h20.289v6.342h-20.293v7.79h22.547v6.358h-31.6zm29.924.931h-28.994v31.217h29.736v-4.5h-22.546v-9.649h20.29v-4.48h-20.29v-8.1h21.8z" fill="#fff"/><path data-name="Path 3" d="M3075.178 3489.456c0-3.37.73-5.062 2.591-6.523a7.12 7.12 0 014.174-1.282c2.644 0 6.142 1.478 6.142 7.213 0 2.6-.73 7.5-6.418 7.5-3.615 0-6.489-2.194-6.489-6.912m-7.666-12.152v32.093h7.737v-11.535a12.024 12.024 0 008.5 3.233c6.477 0 12.271-3.737 12.271-11.943 0-8.361-5.911-12.38-12.218-12.38a12.027 12.027 0 00-8.953 3.932h-.118v-3.4z" fill="#fff"/><path data-name="Path 4" d="M3083.8 3476.3a13 13 0 018.786 3.175 12.6 12.6 0 013.9 9.671 9.117 9.117 0 01-2.013 5.611 16.757 16.757 0 01-4.337 3.83 28.118 28.118 0 01-6.25 2.947l-.134.041-.135-.04a65.775 65.775 0 01-7.9-2.843v11.167h-8.67v-33.026h8.153v2.827a12.769 12.769 0 018.6-3.36zm-.057 24.3a27.944 27.944 0 005.906-2.81c3.917-2.508 5.9-5.417 5.9-8.646 0-8.231-5.9-11.915-11.753-11.915a11.63 11.63 0 00-8.6 3.776l-.139.161h-.8v-3.402h-6.28v31.164h6.807v-12.118l.778.7c.758.69 5.362 2.243 8.185 3.09zm-1.8-19.418a6.486 6.486 0 014.374 1.576c1.482 1.336 2.233 3.389 2.233 6.1a10.192 10.192 0 01-1.138 4.96 6.129 6.129 0 01-5.745 3.009 6.883 6.883 0 01-4.925-1.818 7.527 7.527 0 01-2.03-5.559c0-3.437.751-5.3 2.769-6.889l.009-.007a7.578 7.578 0 014.453-1.368zm-.276 14.718a5.257 5.257 0 004.939-2.543 9.276 9.276 0 001.014-4.495c0-6.09-3.97-6.748-5.676-6.748a6.646 6.646 0 00-3.892 1.186c-1.778 1.4-2.409 3.008-2.409 6.153 0 4.039 2.257 6.447 6.024 6.447z" fill="#fff"/><path data-name="Path 5" d="M3108.207 3488.922c0-4.895 3.38-7.141 7.1-7.141 3.95 0 7.17 2.412 7.17 7.082 0 5.174-3.668 7.184-7.17 7.184-3.669 0-7.1-2.194-7.1-7.125m-7.944-.322c0 10.767 10.47 12.487 15.1 12.487 9.422 0 15.057-5.829 15.057-12.262 0-5.894-4.963-12.061-15.114-12.061-10.352 0-15.04 6.309-15.04 11.837" fill="#fff"/><path data-name="Path 6" d="M3115.3 3476.3c4.8 0 8.837 1.363 11.676 3.941a11.976 11.976 0 012.929 4.026 11.184 11.184 0 01.974 4.56 11.721 11.721 0 01-4.154 8.894 14.759 14.759 0 01-4.887 2.8 19.63 19.63 0 01-6.481 1.037 20.583 20.583 0 01-9.51-2.265 11.6 11.6 0 01-4.273-3.947 12.455 12.455 0 01-1.774-6.746 11.427 11.427 0 013.788-8.334c2.82-2.593 6.872-3.966 11.712-3.966zm.057 24.324c9.58 0 14.592-5.935 14.592-11.8 0-5.585-4.584-11.6-14.649-11.6-9.568 0-14.574 5.72-14.574 11.371.003 11.45 12.191 12.029 14.634 12.029zm-.057-19.309a7.908 7.908 0 015.381 1.912 7.38 7.38 0 012.255 5.636 7.42 7.42 0 01-2.436 5.887 8.005 8.005 0 01-5.2 1.762 7.841 7.841 0 01-5.233-1.83 7.419 7.419 0 01-2.329-5.76 7.454 7.454 0 012.309-5.753 7.813 7.813 0 015.253-1.854zm0 14.266c3.241 0 6.705-1.765 6.705-6.719 0-4.02-2.632-6.617-6.705-6.617-3.059 0-6.63 1.748-6.63 6.676s3.574 6.66 6.63 6.66z" fill="#fff"/><path data-name="Path 7" d="M3154.588 3485.239c-.4-1.626-1.524-3.683-5.294-3.683-6.365 0-6.365 5.475-6.365 6.905 0 4.936 2.015 7.586 6.483 7.586 4.517 0 5.229-3.087 5.57-4.451l7.609 1.04c-1.637 5.752-6.207 8.455-13.585 8.455-12.059 0-14.014-8.265-14.014-12.168 0-5.386 3.08-12.155 14.192-12.155 9.29 0 11.894 4.292 13.025 7.4z" fill="#fff"/><path data-name="Path 8" d="M3149.184 3476.3c4.207 0 7.521.884 9.851 2.628a10.6 10.6 0 013.611 5.081l.2.54-8.6 1.208-.1-.408c-.551-2.24-2.135-3.329-4.842-3.329-3.915 0-5.9 2.167-5.9 6.44a8.282 8.282 0 001.459 5.347 5.541 5.541 0 004.559 1.774c4.1 0 4.752-2.631 5.105-4.045l.115-.459 8.553 1.169-.147.516a11.04 11.04 0 01-4.843 6.654 17.466 17.466 0 01-9.189 2.139 18.358 18.358 0 01-7.466-1.393 11.435 11.435 0 01-4.43-3.407 13.074 13.074 0 01-2.583-7.834 12.379 12.379 0 013.051-8.411 11.864 11.864 0 014.533-3.036 19.579 19.579 0 017.063-1.174zm12.38 7.489c-1.212-2.963-3.929-6.558-12.38-6.558-12.737 0-13.726 8.948-13.726 11.69a12.124 12.124 0 002.386 7.261c2.3 2.947 6.059 4.442 11.163 4.442 7.053 0 11.306-2.488 12.98-7.6l-6.655-.909c-.413 1.553-1.459 4.4-5.918 4.4-4.611 0-6.948-2.709-6.948-8.051a9.163 9.163 0 01.847-4.2 5.445 5.445 0 012.065-2.225 7.551 7.551 0 013.919-.944 6.139 6.139 0 014.221 1.35 4.992 4.992 0 011.412 2.281z" fill="#fff"/><path data-name="Path 9" d="M3175.009 3480.244a12.3 12.3 0 018.9-3.477 13.312 13.312 0 016.824 1.7c3.144 1.963 3.044 5.724 3.09 8.426v13.655h-7.733v-12.3c0-3.962 0-6.787-4.775-6.787-6.307 0-6.307 4.848-6.307 7.4v11.687h-7.725V3468.4h7.725z" fill="#fff"/><path data-name="Path 10" d="M3166.819 3467.935h8.655v11.279a12.689 12.689 0 014.574-2.418 15.087 15.087 0 0110.93 1.279c3.211 2 3.264 5.716 3.3 8.427q0 .2.006.386v14.125h-8.662v-12.764a11.506 11.506 0 00-.548-4.672c-.381-.768-1.154-1.649-3.761-1.649-5.841 0-5.841 4.343-5.841 6.937v12.148h-8.655zm7.725.931h-6.794v31.216h6.794v-11.218a10.675 10.675 0 01.84-4.872c1.023-1.988 3.019-3 5.932-3 2.4 0 3.86.688 4.594 2.166.645 1.3.645 3.054.645 5.086v11.838h6.8V3486.9q0-.189-.006-.385c-.038-2.635-.084-5.914-2.865-7.651a12.915 12.915 0 00-6.578-1.632 11.8 11.8 0 00-8.578 3.35l-.785.743z" fill="#fff"/><path data-name="Path 11" d="M3040.4 3549.882h-13.588v-2.957h13.588v-3.369h-13.588v-2.81h8.579v-3.98h-7.636v-2.8h7.636v-3.277h2.963v3.276h7.69v2.8h-7.69v3.98h8.5v2.809h-3.519v3.369h3.25v2.958h-3.25v9.507a3.475 3.475 0 01-1.548 3.01q-2.058 1.3-7.372-.231l.065-3.087a20.256 20.256 0 002.714.751 11.032 11.032 0 001.75.242 1.564 1.564 0 001.156-.473 1.331 1.331 0 00.3-.989zm-11.7 2.561l2.548-1.508a32.6 32.6 0 013.469 6.244l-2.685 1.366a34.495 34.495 0 00-3.333-6.1m-9.846 6.534v2.447h-2.946v-28.49a.838.838 0 01.961-.945h7.632a.855.855 0 01.983.945v25.034c0 .686-.341 1.006-1.03 1.006zm3.693-3.56v-8.381h-3.689v8.981h3.092a.525.525 0 00.6-.6m-.518-20.484h-2.7a.446.446 0 00-.472.485v8.669h3.691v-8.669c0-.319-.171-.485-.519-.485" fill="#231815"/><path data-name="Path 12" d="M3059.582 3545.743a28.334 28.334 0 01-1.967 3.194l-2.915-1.207a46.422 46.422 0 004.882-9.53c-.019-.024-.019-.024 0-.024a38.923 38.923 0 001.748-7.533l3.039.467c-.513 2.667-1.078 5.115-1.7 7.28v24.277h-3.087zm12.99-2.862l-7.991.45-.441-3.076 7.983-.478a106.153 106.153 0 01-.535-8.9l2.968.142a74.8 74.8 0 00.406 8.573l10.9-.709.194 3.087-10.656.693q1.484 9.729 5.653 14.528c.884 1.129 1.532 1.708 1.9 1.708.2-.018.348-.23.43-.561a33.6 33.6 0 00.465-5.18l2.922.768q-.169 6.421-1.8 8.066a2.027 2.027 0 01-1.285.674 4.51 4.51 0 01-3.061-1.526 6.812 6.812 0 01-.56-.58q-5.961-6.3-7.494-17.678m4.651-9.7l1.632-2.471a39.29 39.29 0 016.907 4.812l-1.767 2.4a43.871 43.871 0 00-6.772-4.742" fill="#231815"/><path data-name="Path 13" d="M3115.432 3549.611h-9.818c-3.261 3.57-6.329 5.984-9.19 7.213l-1.809-2.46a24.986 24.986 0 007.148-4.753h-6.788v-2.685h5.889v-11.576h-5.094v-2.7h5.094v-1.961h2.936v1.964h13.831v-1.964h2.95v1.964h5.276v2.7h-5.276v11.573h6.076v2.685h-7.644l.041.046a25.989 25.989 0 007.909 4.955l-1.963 2.33c-3.746-1.9-5.611-2.838-5.611-2.838s-1.331-1.5-3.957-4.493m-11.632-2.685h13.831v-2.211H3103.8zm0-4.612h13.831v-2.341H3103.8zm0-4.753h13.831v-2.211H3103.8zm5.464 21.852v-3.133H3102v-2.7h7.26v-2.508h2.926v2.508h7.172v2.7h-7.172v3.133h13.385v2.7h-29.525v-2.7z" fill="#231815"/><path data-name="Path 14" d="M3151.044 3533.835q-4.23 4.188-14.609 8.551l-1.624-2.82c7.925-2.679 13.09-5.658 15.456-8.981l2.839.6c-.124.172-.265.391-.413.568a42.124 42.124 0 0014.316 7.8l-1.767 2.761a54.839 54.839 0 01-14.2-8.479m-12.583 18.554l2.541-1.566a36.354 36.354 0 013.763 6.5l-2.644 1.443a40.75 40.75 0 00-3.657-6.374m22.245-1.566l2.41 1.685c-1.537 2.518-2.915 4.593-4.128 6.255l-2.274-1.832a43.325 43.325 0 003.992-6.108m-11.216 8.248v-8.59h-13.461v-2.955h13.46v-4.109h-7.92v-2.951h18.842v2.951h-7.972v4.109h13.39v2.951h-13.39v8.59h13.66v2.969h-30.348v-2.969z" fill="#231815"/><path data-name="Path 15" d="M3204.163 3548.226c0 .273-.124.415-.4.415h-25.839c-.248 0-.376-.142-.376-.415v-8.165a.345.345 0 01.376-.36h25.838c.276.024.4.142.4.36zm-4.881-4.244c-.354.673-.784 1.36-1.272 2.116h3.344c.113-.035.141-.081.141-.142v-3.618c0-.048-.029-.083-.141-.083h-9.092v3.845h2.367a24.009 24.009 0 002.4-3.613zm-14.082-1.574a22.964 22.964 0 011.872 3.689h2.515v-3.842h-9.281c-.083 0-.111.035-.1.083v3.618c-.011.061.017.107.1.142h3.811a21.3 21.3 0 00-1.331-2.388zm-2.6 19v1.255h-2.822v-11.87a.385.385 0 01.43-.426h21.558a.508.508 0 01.576.555v11.744h-2.809v-1.255zm16.934-4.281H3182.6V3559h16.935zm-16.934-2.409h16.934v-1.561c0-.26-.135-.367-.411-.367h-16.164c-.27.006-.4.142-.359.367zm14.266-18.252v1.84h-11.805v-1.882a79.541 79.541 0 01-9.2 2.46l-1-2.827c7.7-1.028 12.948-2.856 15.71-5.416l2.474 1.052a1.2 1.2 0 00-.248.238 40.558 40.558 0 0014.203 4.222l-1.073 2.838a73.032 73.032 0 01-9.062-2.525m-1.766-.7a51.875 51.875 0 01-4.293-2.14 25.519 25.519 0 01-3.968 2.14z" fill="#231815"/><path data-name="Rectangle 2" fill="none" d="M3014 3449.999h193V3563h-193z"/></g></svg>