<svg id="_圖層_1" data-name="圖層 1" xmlns="http://www.w3.org/2000/svg" width="2500" height="50"><defs><style>.cls-1{fill:#1a1311}.cls-2{fill:none}</style></defs><path class="cls-2" d="M1.33.78h48v48h-48z"/><path class="cls-1" d="M28.61 25.8l-.67-.37v-.3c0-.17-.11-.31-.27-.36-.2-.05-.4.06-.46.26l-.56-.32v-.28c0-.16-.1-.3-.25-.35-.19-.07-.4.03-.47.23l-.5-.28c-.03-.65-.1-1.29-.2-1.93-.05-.35-.14-.69-.26-1.02-.05-.12-.2-.5-.52-.5s-.47.38-.52.5c-.12.33-.21.67-.26 1.02-.1.64-.17 1.28-.2 1.93l-.5.28a.37.37 0 00-.72.12v.28l-.57.31a.366.366 0 00-.36-.27c-.2 0-.37.17-.37.37v.3l-.67.37a.24.24 0 00-.12.2v.97s0 .05.01.08c.04.12.17.19.3.14l2.98-1.04c.02.83.09 1.65.22 2.47.02.12.04.24.07.35l-1.55.86s-.06.06-.06.11v.56c.02.07.09.1.16.08l1.81-.63c.03.05.08.1.13.13.19.12.45.06.57-.13l1.81.63h.04c.07 0 .13-.06.13-.13v-.52s-.02-.09-.06-.11l-1.55-.86c.02-.11.05-.23.07-.35.13-.82.2-1.64.22-2.47l2.98 1.04s.05.01.08.01c.13 0 .23-.1.23-.23v-.96a.22.22 0 00-.12-.2zm-1.5-10.7a.997.997 0 00-1.41 1.41l7.9 7.9A.996.996 0 1035.01 23l-7.9-7.9zM25.33.78c-13.25 0-24 10.74-24 24s10.75 24 24 24 24-10.75 24-24-10.74-24-24-24zm15.72 21.47L22.8 40.5c-.37.37-.98.37-1.36 0l-2.92-2.92-.07-.07a.965.965 0 01.14-1.35c.09-.07.18-.15.26-.23a3.314 3.314 0 000-4.68 3.314 3.314 0 00-4.88.22c-.03.04-.06.08-.09.11-.37.37-.98.37-1.36 0L9.6 28.66a.972.972 0 010-1.36L27.86 9.06a.96.96 0 011.35 0l2.92 2.92c.35.35.37.9.07 1.28a3.325 3.325 0 000 4.17 3.305 3.305 0 004.65.49c.38-.31.93-.28 1.28.07l2.92 2.92c.37.37.37.98 0 1.36z"/><path class="cls-2" d="M51 1h48v48H51z"/><path class="cls-1" d="M75 1C61.75 1 51 11.75 51 25s10.75 24 24 24 24-10.75 24-24S88.26 1 75 1zm-.07 7.35c1.6 0 2.91 1.3 2.91 2.91 0 1.6-1.3 2.91-2.91 2.91-1.6 0-2.91-1.3-2.91-2.91 0-1.6 1.3-2.91 2.91-2.91zM82 38.28H68c-.51 0-.93-.41-.93-.93 0-.08.01-.17.03-.25l.85-3.07c.08-.27.27-.49.53-.61l4.3-1.99h4.42l4.3 1.99c.26.11.45.33.53.61l.85 3.07c.02.08.03.16.03.25 0 .51-.42.93-.93.93zm-9.98-10.66c0-1.6 1.3-2.91 2.91-2.91 1.6 0 2.91 1.3 2.91 2.91 0 1.6-1.3 2.91-2.91 2.91-1.6 0-2.91-1.3-2.91-2.91zm14.85-4.2h-23.7c-.66.01-1.2-.51-1.21-1.17-.01-.66.51-1.2 1.17-1.21h3.95V21c0-.08.01-.17.03-.25l.85-3.07c.08-.27.27-.49.53-.61l4.3-1.99 1.42 4.25.35-3.05c.01-.1-.01-.21-.07-.29l-.4-.65s-.01-.03-.02-.04c-.04-.14.04-.28.18-.32.24-.11.49-.18.75-.21.26.03.51.1.75.21.01 0 .03 0 .04.02.13.06.18.22.12.35l-.4.65a.5.5 0 00-.07.29l.35 3.05 1.42-4.25 4.3 1.99c.26.11.45.33.53.61l.85 3.07c.02.08.03.16.03.25v.04h3.91c.66-.01 1.2.51 1.21 1.17.01.66-.51 1.2-1.17 1.21z"/><path class="cls-2" d="M101 1h48v48h-48z"/><path class="cls-1" d="M125 1c-13.25 0-24 10.75-24 24s10.75 24 24 24 24-10.75 24-24-10.74-24-24-24zm12.34 36.8l-25.8-3.36V16.22l25.8-4.02v25.6z"/><path id="Path_36" data-name="Path 36" class="cls-1" d="M115.49 17.88v12.29l12.66-2.21v-8.11l-12.66-1.96z"/><path class="cls-2" d="M151 1h48v48h-48z"/><path class="cls-1" d="M175 1c-13.25 0-24 10.75-24 24s10.75 24 24 24 24-10.75 24-24-10.74-24-24-24zm-8.42 10.86c0-.44.36-.8.8-.8h15.23c.44 0 .8.36.8.8v8.27c0 .44-.36.8-.8.8h-15.23c-.44 0-.8-.36-.8-.8v-8.27zm7.66 26.44c0 .35-.29.64-.64.64h-10.63c-.35 0-.64-.29-.64-.64v-3.69h4.92c0 .57.46 1.03 1.03 1.03s1.03-.46 1.03-1.03h4.92v3.69zm0-5.31h-11.91V29.3c0-.35.29-.64.64-.64h4.28c0 .57.46 1.03 1.03 1.03s1.03-.46 1.03-1.03h4.28c.35 0 .64.29.64.64v3.69zm13.79 4.95c0 .55-.45 1-1 1h-.54c-.55 0-1-.45-1-1v-8.28c0-.55.45-1 1-1h.54c.55 0 1 .45 1 1v8.28zm1.37-11.98c0 .6-.48 1.08-1.08 1.08h-26.64c-.6 0-1.08-.49-1.08-1.08v-.58c0-.6.49-1.08 1.08-1.08h10.58v-1.15c0-.44.36-.8.8-.8h3.95c.44 0 .8.36.8.8v1.15h10.51c.6 0 1.08.49 1.08 1.08v.58z"/><path class="cls-2" d="M201 1h48v48h-48z"/><path class="cls-1" d="M225 16.85c-3.85 0-6.96 3.12-6.96 6.96s3.12 6.96 6.96 6.96 6.96-3.12 6.96-6.96c0-3.85-3.12-6.96-6.96-6.96zm-1.31 3.18c.39-.8.87-1.28 1.31-1.28s.92.48 1.31 1.29c.13.28.24.56.33.85-1.09-.12-2.19-.12-3.28 0 .09-.29.2-.58.33-.85zm-3.98 5.59c.3.19.61.35.94.48.37.15.75.27 1.13.37.13.61.33 1.2.6 1.76.12.25.25.49.4.71a5.618 5.618 0 01-3.07-3.32zm1.84-.62c-.14-.05-.27-.09-.4-.15-.88-.36-1.28-.78-1.28-1.04s.4-.68 1.28-1.04c.13-.05.26-.1.4-.15a11.706 11.706 0 000 2.38zm.83-5.6c-.26.56-.47 1.15-.6 1.76-.39.1-.76.22-1.13.37-.33.13-.64.29-.93.48a5.618 5.618 0 013.07-3.32c-.15.23-.29.47-.4.71zm3.93 8.19c-.38.8-.87 1.28-1.31 1.28s-.92-.48-1.31-1.28c-.13-.28-.24-.56-.33-.85 1.09.12 2.19.12 3.28 0-.09.29-.2.57-.33.85zm.64-2.24c-1.29.19-2.6.19-3.89 0-.14-1.02-.14-2.06 0-3.08.64-.1 1.29-.14 1.94-.14.65 0 1.3.05 1.94.14.14 1.02.14 2.06 0 3.08zm.27 3.58c.15-.23.29-.47.4-.71.26-.56.47-1.15.6-1.76.39-.1.76-.22 1.13-.37.33-.13.64-.29.94-.48a5.618 5.618 0 01-3.07 3.32zm1.23-6.31c.14.05.27.09.4.15.88.36 1.28.78 1.28 1.04s-.4.68-1.28 1.04c-.13.05-.26.1-.4.15a11.706 11.706 0 000-2.38zm.9-1.1c-.37-.15-.75-.27-1.13-.37-.13-.61-.34-1.2-.6-1.76-.12-.25-.25-.49-.4-.71 1.44.63 2.56 1.83 3.07 3.32-.3-.19-.61-.35-.94-.48zm1.35 10.71h-11.41c-.57 0-1.03.46-1.03 1.03s.46 1.03 1.03 1.03h11.41c.57 0 1.03-.46 1.03-1.03s-.46-1.03-1.03-1.03zM225 1c-13.25 0-24 10.75-24 24s10.75 24 24 24 24-10.75 24-24-10.74-24-24-24zm10.31 34.76c0 1.76-1.43 3.18-3.18 3.18h-14.26c-1.76 0-3.18-1.42-3.18-3.18V14.24c0-1.76 1.42-3.18 3.18-3.18h14.26c1.76 0 3.18 1.42 3.18 3.18v21.51z"/></svg>